PathFileType	4	(X/Y/Z)	s10c0401.trc
DataRate	CameraRate	NumFrames	NumMarkers	Units	OrigDataRate	OrigDataStartFrame	OrigNumFrames
200	200	5	50	mm	200	1750	2000
Frame#	Time	racr			lacr			c7			jug			rlel			rdr			llel			ldr			s2			lic			ric			lasi			rasi			rpsi			lpsi			rgt			lgt			rth1			rth2			rth3			rth4			rlfc			rmfc			rsh1			rsh2			rsh3			rsh4			rlmal			rmmal			rcal			rtoe			rmt5			lth1			lth2			lth4			lth3			llfc			lmfc			llmal			lmmal			lcal			lmt5			lsh1			lsh2			lsh3			lsh4			ltoe			SBIKE			LBIKE			RBIKE			
		X1	Y1	Z1	X2	Y2	Z2	X3	Y3	Z3	X4	Y4	Z4	X5	Y5	Z5	X6	Y6	Z6	X7	Y7	Z7	X8	Y8	Z8	X9	Y9	Z9	X10	Y10	Z10	X11	Y11	Z11	X12	Y12	Z12	X13	Y13	Z13	X14	Y14	Z14	X15	Y15	Z15	X16	Y16	Z16	X17	Y17	Z17	X18	Y18	Z18	X19	Y19	Z19	X20	Y20	Z20	X21	Y21	Z21	X22	Y22	Z22	X23	Y23	Z23	X24	Y24	Z24	X25	Y25	Z25	X26	Y26	Z26	X27	Y27	Z27	X28	Y28	Z28	X29	Y29	Z29	X30	Y30	Z30	X31	Y31	Z31	X32	Y32	Z32	X33	Y33	Z33	X34	Y34	Z34	X35	Y35	Z35	X36	Y36	Z36	X37	Y37	Z37	X38	Y38	Z38	X39	Y39	Z39	X40	Y40	Z40	X41	Y41	Z41	X42	Y42	Z42	X43	Y43	Z43	X44	Y44	Z44	X45	Y45	Z45	X46	Y46	Z46	X47	Y47	Z47	X48	Y48	Z48	X49	Y49	Z49	X50	Y50	Z50	
1750	8.7500	638.355649	1335.529857	-61.110653	665.110297	1324.314143	-351.513851	642.613602	1345.137825	-202.422486	624.310000	1198.908780	-211.129639	525.415355	1093.593525	33.783589	620.775865	910.874271	-36.707450	540.390936	1103.867358	-493.205851	626.591192	908.941754	-428.165357	107.337136	1169.193392	-208.635363	256.855781	1152.926056	-374.292914	293.723159	1158.599426	-78.661020	274.701228	1064.526961	-341.368338	275.470392	1074.208857	-86.698445	159.013035	1217.332916	-156.674064	161.392404	1222.396241	-267.905896	164.139890	1065.926138	-26.163774	150.647129	1041.936911	-401.453290	238.074893	929.428348	-10.786107	307.761833	875.872568	-27.453451	339.621468	796.819021	-37.210231	335.651086	900.233795	-35.023546	414.659989	704.134799	-63.635645	402.201429	698.661966	-177.607552	351.092537	607.240768	-30.831521	332.682946	521.445082	-45.995832	276.944928	455.484885	-45.055875	356.842152	513.253970	-75.569636	226.924439	365.608970	-56.989453	247.829306	383.116297	-138.610550	167.424290	346.206275	-101.648910	408.024750	310.773761	-105.334155	326.085539	289.240312	-40.830538	217.689698	927.694060	-421.111147	284.116479	872.333096	-413.375260	312.774570	893.523172	-404.657851	315.446297	789.511413	-411.709384	363.285223	687.427772	-397.101293	364.309390	675.539866	-277.154782	42.975326	480.148988	-389.297125	55.857674	467.710789	-310.515205	-2.178945	510.845900	-340.491245	15.514551	332.988413	-398.815264	256.540912	625.983391	-426.945552	204.712508	559.364207	-409.652205	121.285913	524.622535	-406.433137	224.082640	541.228365	-382.487422	72.692856	267.355275	-342.821999	-217.652216	834.216108	-213.636743	-103.982493	80.635370	-418.331073	-103.976924	80.458106	-18.297294	
1751	8.7550	634.624350	1336.834603	-60.812540	666.319143	1325.126551	-352.261571	641.841003	1345.542686	-202.756535	624.688949	1199.802406	-212.980622	524.958004	1093.997315	32.740804	620.609802	910.602396	-36.755339	541.605603	1103.753980	-494.473676	626.824792	908.824366	-428.489888	107.682257	1168.386384	-205.365852	255.690846	1152.264966	-372.843381	296.521240	1157.578516	-78.991930	273.578973	1064.188825	-340.052865	278.562353	1073.326717	-85.840543	160.764000	1216.044185	-154.013550	161.258762	1221.680659	-265.913790	167.152690	1063.881082	-23.735027	150.212233	1041.636165	-399.128949	240.476695	925.553259	-10.296924	307.618717	869.570471	-27.963229	336.689521	789.507750	-38.244309	336.130095	892.894712	-36.290379	406.831513	693.732587	-65.586575	391.461596	686.810670	-178.676851	344.349954	597.249040	-31.718256	327.405163	511.202242	-46.687588	272.819262	444.119586	-45.615481	352.058395	503.557062	-75.552336	224.002962	354.438726	-56.885490	242.700907	370.481513	-139.743141	164.628856	335.014786	-101.636171	405.353631	300.016145	-105.329496	323.446848	278.233955	-40.893328	218.977979	929.254607	-419.914706	286.290372	875.007767	-412.481887	314.732909	896.616713	-404.047903	318.890236	792.666832	-410.864248	369.383091	692.115308	-396.571265	369.918005	681.347529	-275.265412	46.895106	490.050456	-388.895044	59.559792	478.362517	-309.111371	1.899557	521.526037	-340.114918	18.120382	343.514864	-398.977201	263.514190	630.914122	-425.268477	210.442311	565.523648	-408.151136	126.970459	532.250551	-405.627078	228.329616	547.137439	-380.029606	74.796901	277.407300	-342.844306	-217.723249	834.028266	-213.509282	-103.987259	80.627620	-418.333112	-103.964898	80.460957	-18.298136	
1752	8.7600	630.649024	1338.257934	-60.815562	667.175279	1326.001356	-353.242606	641.258715	1345.905016	-202.828139	621.325122	1200.182756	-212.429157	524.770646	1094.372731	31.959522	620.403135	910.374465	-36.843399	542.891240	1103.604516	-495.606737	627.259697	908.920272	-428.662978	107.998883	1167.214522	-202.291009	254.735971	1151.548153	-371.412971	299.331112	1156.502074	-79.319348	272.420678	1063.828668	-338.832716	281.632424	1072.099725	-85.063579	161.527581	1214.764093	-151.282287	161.052173	1220.510849	-263.683925	170.466090	1061.182981	-21.934288	149.768865	1041.267474	-396.948225	242.732260	921.257683	-9.832696	307.455904	863.016801	-28.587885	333.573831	781.903050	-39.408853	336.641601	885.266305	-37.582885	398.928715	684.028688	-67.634077	384.149397	676.568507	-178.848413	337.035055	588.919231	-32.407942	321.670573	502.461824	-47.096306	268.518316	434.569901	-45.685971	346.694103	494.977026	-75.618271	220.512809	343.480529	-56.877328	239.429180	358.984562	-140.222885	161.409862	324.252272	-101.586926	402.233573	289.493753	-104.619138	320.289769	267.629564	-40.830291	220.171196	930.593465	-418.721222	288.418073	877.495857	-411.547359	316.532647	899.541311	-403.158562	321.644356	795.208142	-409.272545	375.586963	696.707461	-395.976400	375.720488	686.763532	-273.474935	51.059463	500.398693	-388.286577	63.274873	487.875376	-308.898326	6.182015	532.068085	-339.797600	21.399070	354.019050	-398.935609	270.339075	636.156337	-424.123202	216.266728	571.619910	-406.752121	132.233344	539.746300	-404.503703	232.795542	552.649807	-376.507488	77.734040	287.589320	-342.899965	-217.605973	834.213575	-213.586989	-103.973992	80.609794	-418.331850	-103.954370	80.451556	-18.288569	
1753	8.7650	627.273112	1339.305851	-60.554838	668.004879	1326.947919	-354.229821	640.483753	1346.285324	-202.609621	620.193221	1200.182003	-211.239483	524.341364	1094.499103	31.091659	620.157308	910.046762	-36.964571	544.250431	1103.338775	-496.641574	627.554147	909.625564	-429.949115	108.525970	1165.714914	-199.251756	253.721608	1150.793202	-370.039284	302.469777	1154.778830	-80.747588	271.219891	1063.457506	-337.578932	283.719364	1069.978475	-87.427734	162.630330	1213.161863	-148.629202	159.781864	1218.273537	-259.937818	173.699302	1057.997136	-20.356478	149.343949	1040.701373	-394.774659	244.126536	916.100897	-9.868055	307.188063	856.101086	-29.287020	330.143300	774.209088	-40.642428	337.073636	877.336642	-38.671552	391.090396	675.198182	-69.867339	374.277933	666.196470	-179.834304	328.781166	581.067510	-33.237430	315.282420	494.219640	-47.344567	263.463240	425.171233	-46.110207	340.715940	486.793268	-75.681893	216.432476	333.091989	-56.784663	235.904002	348.155706	-140.531207	157.725983	313.951478	-101.630885	398.438432	278.851523	-104.754602	316.469717	257.208395	-40.918794	220.736252	931.675180	-417.189526	290.284513	879.642158	-409.852633	318.114634	901.882395	-401.118181	324.941945	798.009672	-408.390168	381.983930	701.177949	-395.308857	380.920890	691.880092	-272.244315	55.406089	510.483185	-387.692206	67.272592	497.739676	-308.236486	10.020908	542.166579	-339.344520	25.349287	364.390690	-398.867035	277.037694	641.663026	-423.154190	221.882761	578.059224	-405.361993	137.058950	547.196877	-403.182451	238.101112	559.064699	-374.780878	81.480669	297.568565	-342.801202	-217.584953	834.203198	-213.587218	-103.977486	80.605268	-418.307469	-103.946588	80.433457	-18.296874	
1754	8.7700	623.747883	1340.348635	-60.615026	668.803618	1328.022155	-355.261127	639.569473	1347.075161	-203.832025	618.785925	1200.524005	-211.132785	523.987178	1094.424071	30.347539	619.550432	909.634356	-37.240946	545.635994	1103.146765	-497.636332	627.754930	909.710657	-430.184907	109.135706	1163.711998	-196.455660	252.738667	1149.959592	-368.681005	305.121527	1153.293277	-81.092609	269.867174	1063.110255	-336.250289	286.604738	1068.317725	-87.342545	164.157307	1210.994509	-146.115269	159.487312	1216.517196	-257.702416	177.345248	1054.471002	-18.765187	148.905922	1040.055218	-392.872559	245.739180	910.757101	-9.703726	306.712237	848.890678	-30.131081	326.736592	766.271009	-41.968163	337.063369	869.107036	-40.164589	383.305045	667.397464	-72.259572	362.736690	657.080003	-181.613007	320.392806	573.230230	-34.314096	308.685534	486.121277	-47.575305	258.028227	416.062015	-46.547657	334.455240	478.788329	-75.840057	211.990716	323.257738	-56.692313	231.387612	337.588157	-140.765153	154.330698	303.340210	-102.538555	394.177112	268.361065	-104.658151	312.082032	247.131969	-40.902155	221.907943	932.589288	-416.098022	292.297738	881.741700	-408.598423	319.763691	904.539447	-399.779603	328.278970	800.796715	-407.354776	388.574305	705.651876	-394.474868	385.754421	696.529602	-271.455519	60.197709	520.879273	-387.223315	71.393472	507.659096	-307.642730	13.978024	552.241183	-338.959590	30.060313	374.767262	-398.911702	283.629318	647.483594	-422.213382	227.646920	584.821678	-404.244516	142.366740	555.024494	-402.192015	243.428903	565.715806	-373.310640	86.133184	307.963112	-342.955566	-217.685276	833.927268	-213.504231	-103.960542	80.586447	-418.327067	-103.960192	80.440084	-18.297742	
